<?xml version="1.0" encoding="UTF-8"?><svg id="Layer_1" xmlns="http://www.w3.org/2000/svg" viewBox="0 0 120.31 120.31"><defs><style>.cls-1{fill:#966bf0;}</style></defs><path class="cls-1" d="M23.61,101.93c-1.49.48-3,.99-4.57,1.16-20.92,2.31-26.54-27.56-7.03-33.45,5.17-1.56,10.19-.58,14.76,2.13l24.99-34.48,3.17,2.31,6.87,13.23-6.05,13.44c1.79,3.02,4.55,5.64,5.73,8.94l-10.27,14.18.07.24c9.18,7.05,8.72,21.2-.86,27.72-7.47,5.09-17.85,3.47-23.29-3.74-2.55-3.38-3.67-7.45-3.52-11.69ZM43.73,91.29l11.61-16.41-5.47-7.94,6.16-13.81-.09-.55-3.74-7.16-24.68,34.07c-1.93-1.71-3.43-3.59-5.9-4.56-10.05-3.98-19.8,5.95-15.6,15.93,2.91,6.89,11.39,9.3,17.65,5.23,1.4-.91,2.31-2.14,3.52-3.25l3.89,2.64c-.39,1.45-1.36,2.71-1.81,4.21-2.09,6.94,2.34,14.1,9.45,15.33,8.81,1.53,15.95-6.66,13.58-15.24-1.19-4.31-4.56-6.89-8.56-8.48Z"/><path class="cls-1" d="M95.09,21.48c9.68-3.96,21.01,1.54,23.35,11.8,3.53,15.46-13.18,26.72-26.35,18.36l-19.03,26.52c-2.22-4.57-5.54-8.4-8.37-12.59l6.11-13.92-5.3-10.1-2.01-1.39,3.98-6.1c-8.93-7.06-8.92-20.8.37-27.6,11.8-8.63,28.12.66,27.24,15.03ZM87.61,27.95c2.17-4.07,3.22-7.8,1.4-12.28-5.03-12.39-24.29-8.09-23.01,6.06.47,5.19,4.45,8.89,9.14,10.56l-4.93,7.06,6.26,11.98-.07.57-5.88,12.91,2.88,4.04,17.95-24.93c3.3,3.65,7.11,6.09,12.25,5.27,11.1-1.77,13.99-16.66,4.23-22.25-5.88-3.37-12.19-1.28-16.31,3.65l-3.9-2.63Z"/></svg>